<?xml version="1.0" standalone="no"?>
<!DOCTYPE svg PUBLIC "-//W3C//DTD SVG 20010904//EN"
 "http://www.w3.org/TR/2001/REC-SVG-20010904/DTD/svg10.dtd">
<svg version="1.0" xmlns="http://www.w3.org/2000/svg"
 width="3508.000000pt" height="3508.000000pt" viewBox="0 0 3508.000000 3508.000000"
 preserveAspectRatio="xMidYMid meet">

<g transform="translate(0.000000,3508.000000) scale(0.100000,-0.100000)"
fill="#000000" stroke="none">
<path d="M2998 31229 c-17 -18 -18 -685 -18 -13709 l0 -13690 14560 0 14560 0
0 13710 0 13710 -14542 -1 c-14319 -1 -14543 -1 -14560 -20z m14376 -6204 c39
-16 71 -57 63 -79 -7 -17 11 -36 35 -36 10 0 41 17 69 39 84 63 119 68 279 40
92 -16 100 -19 100 -33 0 -27 -55 -39 -144 -31 -83 7 -84 6 -116 -23 -32 -28
-33 -31 -32 -103 1 -41 -3 -100 -9 -132 -13 -66 -7 -96 42 -209 41 -95 38
-147 -6 -98 -10 11 -23 20 -28 20 -21 0 -47 -34 -47 -61 0 -40 -14 -43 -35 -6
-19 31 -19 39 -14 212 1 36 -3 65 -17 133 -7 35 -20 26 -43 -29 -23 -56 -26
-80 -12 -94 23 -26 20 -61 -9 -104 -17 -24 -30 -50 -30 -56 0 -7 -7 -18 -15
-25 -12 -10 -16 -8 -25 15 -17 45 -38 25 -70 -65 -7 -19 -14 -47 -17 -62 -3
-15 -14 -35 -24 -44 -12 -11 -19 -30 -19 -54 0 -20 -5 -41 -11 -47 -15 -15
-19 -163 -5 -186 8 -13 7 -25 -6 -48 -10 -17 -18 -46 -18 -65 0 -19 -7 -45
-14 -57 -8 -12 -14 -36 -14 -54 1 -18 -5 -40 -13 -49 -7 -9 -14 -34 -15 -55
-1 -22 -8 -47 -15 -55 -7 -8 -12 -30 -11 -49 1 -18 -5 -39 -13 -45 -9 -7 -15
-30 -15 -54 0 -22 -7 -50 -15 -60 -8 -11 -15 -35 -15 -54 0 -18 -5 -43 -12
-55 -6 -12 -11 -36 -10 -53 2 -18 -4 -37 -13 -44 -9 -7 -15 -29 -15 -54 -1
-22 -7 -52 -15 -66 -8 -14 -14 -41 -15 -61 0 -19 -5 -40 -11 -46 -6 -6 -13
-32 -14 -56 -2 -25 -11 -57 -20 -71 -10 -15 -14 -33 -10 -46 4 -13 0 -31 -9
-45 -9 -13 -16 -39 -16 -57 -1 -18 -7 -44 -15 -58 -8 -14 -14 -41 -15 -61 0
-19 -6 -44 -14 -55 -8 -10 -12 -29 -9 -42 3 -12 -2 -33 -11 -47 -9 -13 -16
-41 -16 -62 0 -21 -6 -47 -14 -58 -7 -11 -16 -38 -19 -60 -8 -61 -26 -137 -39
-170 -7 -16 -11 -40 -9 -53 1 -13 -4 -33 -12 -45 -8 -12 -16 -38 -19 -57 -8
-55 -29 -132 -44 -163 -8 -16 -11 -33 -8 -39 6 -10 -14 -95 -38 -163 -6 -16
-14 -50 -18 -75 -5 -25 -18 -80 -29 -124 -12 -43 -21 -88 -21 -100 0 -12 -7
-31 -15 -42 -8 -10 -15 -34 -15 -52 0 -18 -7 -49 -15 -69 -8 -19 -15 -47 -15
-62 0 -15 -5 -32 -12 -39 -7 -7 -11 -30 -10 -52 2 -22 -3 -50 -10 -62 -20 -37
-41 -233 -40 -370 l2 -127 -32 -3 c-29 -3 -33 -7 -36 -34 -4 -42 17 -58 60
-46 26 7 32 13 30 30 -4 27 12 28 45 2 19 -15 41 -20 84 -20 85 0 158 -17 414
-95 180 -55 344 -105 435 -132 47 -14 110 -33 140 -43 89 -29 179 -56 275 -85
50 -15 108 -33 130 -40 22 -7 101 -32 175 -55 202 -63 250 -81 265 -103 18
-25 3 -47 -31 -47 -32 0 -152 28 -194 45 -19 8 -59 19 -88 25 -30 5 -63 17
-75 25 -23 16 -127 21 -127 6 0 -5 17 -11 38 -15 21 -3 49 -14 61 -25 12 -11
32 -26 44 -35 22 -15 22 -15 -11 -15 -18 -1 -50 8 -72 19 -22 11 -62 25 -90
31 -29 6 -64 17 -78 25 -15 8 -34 14 -42 14 -8 0 -48 11 -90 24 -41 14 -136
44 -210 66 -74 23 -169 52 -210 66 -42 13 -84 24 -94 24 -10 0 -32 7 -49 15
-18 8 -50 20 -72 27 -29 10 -39 18 -37 31 2 9 -3 17 -11 17 -8 0 -26 9 -41 21
-14 11 -34 19 -43 17 -10 -1 -38 12 -62 30 -24 18 -50 32 -57 32 -23 0 -28
-23 -8 -37 31 -23 -2 -35 -45 -16 -20 8 -61 21 -91 29 -30 8 -103 31 -163 50
-102 34 -110 35 -156 23 -42 -10 -57 -10 -98 3 -41 13 -48 14 -51 1 -2 -8 3
-25 12 -38 23 -35 20 -62 -9 -89 -30 -28 -31 -42 -6 -55 10 -6 24 -25 30 -42
13 -39 15 -174 2 -198 -5 -9 -13 -62 -16 -116 -4 -55 -13 -113 -20 -130 -12
-29 -18 -52 -34 -155 -4 -25 -13 -61 -19 -80 -11 -32 -35 -125 -67 -260 -39
-167 -57 -239 -67 -270 -7 -19 -15 -53 -19 -75 -4 -22 -15 -67 -24 -100 -9
-33 -20 -78 -25 -100 -13 -64 -59 -247 -72 -285 -6 -19 -15 -53 -19 -75 -4
-22 -15 -69 -24 -105 -10 -36 -21 -83 -25 -105 -5 -22 -23 -94 -40 -160 -18
-66 -35 -138 -40 -160 -4 -22 -18 -76 -30 -120 -12 -44 -26 -98 -30 -120 -4
-22 -12 -53 -18 -70 -5 -16 -15 -55 -21 -85 -11 -51 -23 -100 -50 -210 -7 -25
-19 -74 -27 -110 -9 -36 -22 -87 -29 -115 -7 -27 -21 -84 -30 -125 -9 -41 -21
-86 -26 -100 -6 -13 -12 -40 -15 -60 -2 -19 -8 -46 -13 -60 -5 -14 -17 -59
-26 -100 -9 -41 -20 -88 -25 -105 -4 -16 -16 -66 -25 -110 -9 -44 -23 -96 -31
-116 -7 -20 -11 -39 -8 -42 3 -3 0 -22 -6 -44 -16 -51 -47 -232 -54 -318 -2
-22 -7 -72 -11 -112 -6 -59 -5 -77 9 -97 20 -31 21 -56 2 -56 -25 0 -70 20
-83 37 -11 14 -16 14 -59 -1 -53 -18 -73 -12 -49 14 23 25 6 32 -55 24 l-50
-7 0 40 c0 35 7 47 51 92 46 47 54 51 97 51 46 0 47 1 66 46 21 52 13 82 -20
76 -11 -2 -31 -6 -46 -9 -26 -5 -28 -3 -28 31 0 39 11 97 35 181 8 28 35 133
59 235 90 372 148 609 196 805 27 110 76 313 110 450 33 138 81 331 105 430
24 99 66 272 94 385 27 113 75 306 105 430 30 124 71 293 91 375 85 356 126
523 140 566 8 26 15 56 15 67 0 12 6 41 14 64 7 24 23 79 36 123 12 45 37 105
55 135 25 40 31 59 24 71 -5 10 -9 33 -9 51 0 18 -9 48 -20 66 -16 26 -18 37
-10 53 14 24 8 33 -29 49 -16 6 -32 19 -36 28 -7 18 14 34 35 26 35 -14 151
-23 175 -14 24 9 62 67 51 77 -3 3 -17 -2 -31 -11 -83 -54 -167 -52 -179 5
-12 61 -9 66 37 73 36 6 49 14 73 46 16 22 32 40 35 40 3 0 20 -11 39 -25 55
-40 70 -31 70 45 0 49 -8 54 -48 29 -37 -22 -58 -24 -65 -6 -6 18 10 133 28
197 9 30 22 80 30 110 7 30 24 100 38 155 14 55 34 138 46 185 11 47 27 110
36 140 8 30 28 109 44 175 16 66 75 300 131 520 56 220 105 411 107 425 3 14
21 86 40 160 19 74 52 205 73 290 21 85 71 281 110 435 39 154 87 343 106 420
18 77 38 154 44 170 5 17 18 68 28 115 11 47 34 139 52 205 18 66 38 143 45
170 7 28 25 84 40 125 15 41 35 98 45 127 28 80 37 92 75 99 39 7 50 28 40 74
-7 31 -80 90 -113 90 -23 0 -37 11 -51 37 -6 13 -30 32 -51 43 -72 37 -53 47
91 49 66 1 108 -4 133 -14z m1352 -70 c10 -8 40 -15 66 -15 26 0 57 -4 70 -9
31 -12 97 -30 128 -35 62 -10 325 -100 480 -165 41 -18 92 -39 112 -47 42 -18
216 -106 303 -153 184 -102 162 -88 345 -206 82 -53 220 -156 261 -195 14 -14
73 -68 130 -120 57 -52 137 -126 179 -164 124 -114 313 -316 295 -316 -8 0
-126 94 -232 185 -45 38 -105 88 -134 110 -29 22 -84 64 -123 94 -127 98 -404
279 -611 400 -104 61 -509 268 -591 302 -22 9 -57 25 -79 34 -22 10 -60 26
-85 34 -31 11 -44 21 -42 32 1 11 -7 18 -27 22 -17 4 -30 14 -34 26 -3 13 -19
23 -48 31 -24 6 -53 17 -64 24 -11 7 -42 19 -70 26 -27 7 -66 22 -85 32 -19
10 -45 18 -57 18 -12 0 -34 5 -50 11 -15 7 -57 22 -93 35 l-65 22 51 1 c30 1
58 -5 70 -14z m-2039 -31 c-3 -3 -12 -4 -19 -1 -8 3 -5 6 6 6 11 1 17 -2 13
-5z m-577 -14 c-20 -13 -50 -13 -50 0 0 6 15 10 33 10 24 0 28 -3 17 -10z
m-162 -40 c22 -1 18 -4 -18 -16 -25 -9 -50 -22 -56 -29 -5 -8 -22 -17 -37 -20
-40 -10 -52 -30 -19 -33 14 -1 30 -6 36 -12 14 -14 -23 -25 -43 -13 -22 14
-41 5 -51 -23 -6 -15 -18 -24 -30 -24 -11 0 -43 -11 -70 -25 -27 -14 -54 -25
-59 -25 -5 0 -57 -22 -115 -50 -58 -27 -108 -50 -110 -50 -2 0 -56 -29 -120
-65 -120 -67 -291 -179 -336 -220 -14 -12 -30 -24 -36 -26 -27 -10 -274 -231
-389 -349 -78 -80 -120 -111 -180 -130 -22 -7 -58 -22 -80 -33 -29 -15 -57
-20 -103 -19 -103 3 -192 -49 -192 -112 l0 -31 26 33 c26 33 169 110 181 98 3
-3 -2 -24 -13 -47 -22 -50 -75 -88 -130 -92 -21 -2 -52 -9 -67 -16 -16 -6 -33
-8 -38 -5 -24 14 -77 -9 -129 -57 -61 -55 -90 -75 -90 -60 0 12 36 56 112 136
73 78 138 160 138 174 0 37 77 123 187 208 33 26 88 71 121 98 99 82 233 178
369 263 152 95 439 251 543 295 40 17 171 73 215 92 48 21 116 46 169 61 27 7
58 20 70 28 12 7 37 17 56 20 19 4 59 16 88 27 29 10 65 19 80 19 16 0 35 9
45 21 11 12 25 18 33 15 9 -3 28 -6 42 -6z m62 6 c0 -11 -19 -15 -25 -6 -3 5
1 10 9 10 9 0 16 -2 16 -4z m1577 -698 c-3 -7 -5 -2 -5 12 0 14 2 19 5 13 2
-7 2 -19 0 -25z m281 -310 c18 -35 48 -128 67 -208 20 -80 42 -167 50 -195 20
-74 56 -224 65 -270 8 -45 43 -185 65 -260 19 -66 65 -249 75 -300 10 -48 45
-190 65 -260 12 -45 25 -98 70 -285 7 -30 25 -102 40 -160 14 -58 32 -130 39
-160 8 -30 28 -111 46 -180 17 -69 38 -155 46 -193 7 -37 20 -91 29 -120 8
-28 49 -191 90 -362 42 -170 80 -326 85 -345 16 -60 58 -230 85 -345 14 -60
31 -130 39 -155 17 -54 31 -119 29 -140 -1 -8 7 -28 17 -45 9 -16 21 -52 24
-78 9 -57 36 -139 72 -215 23 -49 24 -56 11 -70 -14 -13 -19 -13 -49 5 -22 13
-34 28 -36 46 -5 38 -17 34 -32 -12 -16 -50 -1 -83 58 -128 51 -38 73 -40 137
-13 26 11 64 20 84 20 146 0 755 -293 940 -453 19 -16 55 -55 80 -86 24 -31
104 -117 176 -191 135 -140 219 -244 274 -341 31 -57 39 -89 21 -89 -5 0 -18
12 -27 27 -103 158 -256 330 -378 423 -124 95 -343 234 -473 299 -15 7 -63 35
-107 61 -123 73 -123 73 -154 62 -21 -7 -44 -4 -97 13 -42 14 -110 25 -176 30
-96 6 -111 5 -154 -14 -27 -12 -56 -29 -66 -38 -15 -13 -20 -14 -34 -2 -16 13
-15 45 1 96 7 21 5 22 -23 17 -35 -7 -47 6 -44 52 3 45 -80 134 -125 134 -18
0 -34 -4 -37 -9 -3 -4 28 -42 69 -84 l75 -76 -16 -37 c-8 -20 -13 -47 -10 -60
3 -12 1 -35 -5 -50 -8 -22 -6 -38 6 -70 14 -38 15 -46 2 -71 -13 -24 -13 -34
-2 -66 7 -21 20 -46 29 -56 17 -19 21 -56 7 -65 -4 -3 -19 6 -31 19 -18 19
-25 40 -28 87 -3 45 -12 73 -34 108 -27 44 -30 56 -32 151 -2 117 -17 156 -83
230 -32 35 -35 42 -21 50 9 5 21 24 27 42 6 18 24 39 40 49 26 14 30 23 36 81
4 36 4 75 0 87 -6 20 -11 21 -52 15 -55 -8 -70 3 -79 61 -5 35 -3 49 11 64 10
11 24 20 31 20 25 0 35 40 33 133 -3 111 -9 129 -59 184 -40 42 -45 58 -34 99
9 34 57 17 65 -23 8 -38 18 -55 30 -48 12 8 12 50 0 89 -29 94 -35 122 -33
139 2 10 -5 37 -16 60 -20 43 -31 92 -37 160 -2 21 -10 46 -19 56 -10 11 -16
35 -16 62 0 25 -7 55 -16 67 -8 12 -14 28 -11 35 2 6 -2 26 -10 44 -7 18 -13
52 -13 76 0 31 -6 49 -20 62 -10 9 -19 29 -18 44 1 62 -16 147 -33 166 -11 13
-18 35 -17 62 0 24 -6 53 -14 65 -16 25 -27 75 -32 151 -2 28 -10 53 -19 60
-8 7 -18 37 -22 67 -13 110 -17 129 -31 141 -8 7 -14 30 -14 58 0 28 -7 56
-17 71 -10 14 -19 39 -20 55 -9 102 -17 142 -33 160 -10 11 -20 40 -23 65 -9
72 -22 133 -35 157 -7 12 -12 43 -12 68 0 36 -4 48 -18 52 -13 3 -18 15 -19
46 -3 96 -15 158 -34 168 -16 8 -18 17 -13 49 5 28 2 47 -10 64 -9 14 -16 38
-16 53 -1 15 -7 39 -14 52 -8 14 -12 40 -9 61 4 28 1 42 -15 56 -19 19 -29 63
-35 162 -1 29 -8 47 -19 53 -14 8 -18 23 -18 64 0 35 -5 57 -14 62 -13 8 -25
66 -31 157 -2 26 -11 56 -19 65 -9 10 -16 27 -16 38 0 28 -37 80 -83 117 l-39
31 -23 -28 -22 -29 -22 27 c-14 19 -21 42 -21 71 0 24 2 44 5 44 2 0 13 -16
23 -36 17 -34 20 -35 35 -19 9 9 17 23 17 32 0 24 43 72 66 72 16 1 29 -14 52
-61z m-3640 -358 c4 -69 -12 -107 -48 -115 -15 -3 -33 -5 -40 -3 -8 2 -18 -11
-23 -29 -5 -18 -14 -33 -18 -33 -13 0 -11 33 4 55 7 11 19 38 25 61 14 49 68
127 85 121 7 -2 13 -27 15 -57z m3682 -154 c0 -14 -5 -28 -10 -31 -13 -8 -24
20 -16 40 9 24 26 17 26 -9z m-3725 -33 c-3 -27 -10 -61 -15 -78 -4 -16 -12
-43 -17 -59 -4 -16 -12 -29 -18 -27 -17 3 -8 76 14 112 12 19 21 49 21 67 0
17 5 32 11 32 8 0 9 -15 4 -47z m-105 -93 c0 -75 2 -83 26 -105 24 -22 25 -28
15 -53 -6 -15 -11 -52 -10 -82 2 -116 -6 -216 -21 -240 -19 -32 -20 -352 -2
-514 14 -121 11 -151 -13 -120 -15 19 -15 19 -30 -1 -9 -11 -18 -30 -22 -42
-3 -13 -9 -23 -14 -23 -5 0 -9 1 -9 3 0 1 -12 34 -26 72 -53 145 -94 291 -100
362 -17 189 80 685 150 762 9 10 16 22 16 27 0 12 21 34 32 34 4 0 8 -36 8
-80z m-440 40 c0 -32 -81 -103 -97 -86 -15 14 11 57 45 75 43 23 52 25 52 11z
m4267 -12 c-3 -8 -6 -5 -6 6 -1 11 2 17 5 13 3 -3 4 -12 1 -19z m3698 -128 c7
0 19 -8 26 -17 12 -15 12 -16 -1 -8 -8 5 1 -7 20 -26 94 -93 272 -328 340
-447 17 -29 41 -68 76 -122 70 -108 276 -525 338 -685 26 -66 55 -140 66 -165
42 -106 127 -410 150 -545 5 -27 16 -88 25 -135 16 -82 20 -110 44 -325 7 -55
24 -194 38 -309 24 -198 25 -216 13 -320 -8 -61 -14 -190 -16 -286 -1 -130 -6
-188 -18 -224 -11 -33 -16 -85 -16 -155 0 -58 -6 -129 -14 -156 -7 -28 -11
-65 -9 -82 3 -17 -2 -56 -11 -86 -9 -30 -16 -76 -16 -101 0 -26 -7 -63 -15
-83 -8 -19 -15 -51 -15 -69 0 -19 -7 -62 -16 -97 -8 -34 -19 -78 -24 -97 -18
-79 -51 -203 -70 -265 -5 -16 -16 -52 -24 -80 -137 -460 -414 -1010 -713
-1415 -18 -25 -49 -68 -68 -97 -19 -29 -44 -57 -55 -63 -11 -6 -26 -26 -34
-44 -8 -19 -38 -53 -68 -76 -29 -23 -65 -60 -80 -82 -30 -45 -74 -88 -88 -88
-6 0 -15 -9 -22 -20 -7 -11 -18 -20 -25 -20 -7 0 -20 -11 -29 -25 -9 -14 -23
-25 -30 -25 -8 0 -14 -6 -14 -12 -1 -12 -128 -100 -232 -160 -47 -28 -88 -36
-88 -19 0 24 401 450 425 451 16 0 123 57 155 82 55 42 132 122 191 198 32 41
68 88 81 104 13 16 25 34 28 40 3 6 35 56 71 111 130 197 275 471 365 689 45
108 124 350 124 377 0 24 -29 23 -40 -1 -4 -8 -33 -69 -64 -135 -32 -66 -61
-127 -67 -135 -5 -8 -18 -34 -28 -56 -27 -59 -46 -68 -37 -18 4 21 14 50 21
64 32 62 167 491 204 650 23 96 47 195 53 220 6 25 14 68 18 95 4 28 12 79 19
115 48 251 54 302 75 570 40 523 46 816 21 1051 -19 176 -19 329 0 329 15 0
24 -32 33 -114 4 -33 13 -61 19 -63 20 -7 8 178 -12 193 -10 7 -15 28 -15 61
0 28 -9 86 -21 129 -11 44 -24 99 -28 124 -4 25 -12 54 -18 65 -5 11 -16 49
-22 85 -7 36 -19 79 -27 95 -7 17 -18 48 -23 70 -5 22 -21 72 -35 110 -14 39
-34 95 -45 125 -18 52 -38 99 -83 200 -24 52 -115 238 -128 260 -5 8 -28 50
-52 93 -24 44 -53 95 -65 115 -12 21 -28 48 -35 62 -7 14 -26 45 -42 70 -83
130 -104 162 -155 239 -31 46 -60 91 -66 100 -5 9 -26 36 -45 61 -20 25 -43
56 -53 70 -9 14 -30 44 -47 68 -33 47 -42 83 -9 40 11 -16 26 -28 34 -28z
m-3647 8 c-4 -41 -28 -50 -28 -10 0 16 3 32 7 35 15 16 24 5 21 -25z m-4473
-28 c12 -19 -6 -50 -48 -83 -25 -19 -41 -39 -39 -48 1 -9 -18 -40 -43 -70 -25
-29 -45 -57 -45 -62 0 -5 -15 -26 -32 -47 -18 -20 -41 -50 -50 -66 -10 -16
-48 -76 -84 -134 -60 -94 -92 -147 -156 -259 -38 -66 -156 -306 -203 -411
-101 -227 -231 -585 -241 -663 -2 -17 -8 -35 -14 -41 -5 -5 -10 -24 -10 -40 0
-17 -7 -40 -15 -50 -8 -11 -15 -36 -15 -56 0 -19 -7 -46 -16 -59 -10 -13 -14
-33 -11 -49 3 -16 -2 -44 -13 -67 -12 -25 -16 -51 -13 -73 4 -25 0 -41 -16
-63 -18 -24 -21 -37 -15 -79 5 -39 2 -56 -13 -82 -15 -26 -18 -46 -15 -99 3
-48 0 -74 -12 -97 -14 -28 -16 -91 -13 -576 2 -499 4 -546 20 -564 24 -26 22
-97 -4 -166 -23 -60 -20 -90 7 -79 11 4 23 -2 35 -18 22 -29 24 -40 5 -33 -22
9 -37 -30 -43 -112 -3 -41 -9 -74 -14 -74 -10 0 -67 172 -89 269 -10 42 -29
119 -44 171 -15 52 -31 127 -36 165 -4 39 -10 302 -11 585 -3 565 -2 571 62
880 43 207 68 304 106 405 8 22 23 69 33 105 10 36 30 97 45 135 14 39 33 90
41 114 8 25 20 54 28 66 7 11 16 34 20 52 4 17 16 39 26 48 11 10 22 33 26 51
3 19 10 37 15 40 14 8 11 -15 -10 -81 -19 -57 -41 -134 -75 -255 -18 -65 -40
-210 -32 -217 14 -14 36 9 36 37 0 17 9 40 20 52 11 12 20 31 20 43 0 12 11
44 25 71 14 27 25 56 25 64 0 8 12 38 25 65 14 28 25 56 25 62 0 7 9 27 20 45
11 18 20 38 20 45 0 37 260 557 365 730 28 46 57 95 65 110 8 16 25 42 38 60
12 17 22 33 22 36 0 3 24 40 53 83 28 42 57 84 62 93 32 53 59 81 76 81 11 0
19 7 19 17 0 23 40 80 65 92 26 13 33 13 40 1z m4502 -92 c-3 -8 -6 -5 -6 6
-1 11 2 17 5 13 3 -3 4 -12 1 -19z m13 -103 c0 -14 -4 -25 -10 -25 -5 0 -10
11 -10 25 0 14 5 25 10 25 6 0 10 -11 10 -25z m46 -107 c-3 -13 -6 -31 -6 -41
0 -10 -4 -15 -10 -12 -5 3 -10 22 -10 41 0 25 4 34 16 34 12 0 15 -6 10 -22z
m44 -233 c0 -19 -4 -35 -10 -35 -12 0 -24 45 -15 59 13 22 25 10 25 -24z m40
-115 c0 -35 -15 -40 -25 -9 -5 14 -2 25 6 30 19 12 19 12 19 -21z m10 -94 c0
-14 -4 -27 -9 -31 -12 -7 -25 31 -16 45 11 18 25 10 25 -14z m3813 -90 c44
-64 177 -323 177 -346 0 -9 7 -25 15 -38 9 -12 25 -48 36 -79 58 -170 79 -237
79 -254 0 -10 7 -39 16 -64 8 -25 14 -63 12 -83 l-3 -37 -14 45 c-7 25 -19 52
-26 60 -7 8 -18 33 -25 55 -7 22 -19 51 -26 65 -7 14 -29 66 -48 115 -19 50
-51 128 -71 175 -20 47 -40 96 -45 110 -9 29 -47 118 -60 141 -5 9 -23 54 -41
100 -18 46 -36 88 -41 94 -4 5 -8 18 -8 30 0 18 2 17 18 -6 9 -15 34 -52 55
-83z m-3777 -62 c-9 -23 -26 -6 -26 26 0 35 24 46 28 13 2 -14 1 -31 -2 -39z
m-4014 -262 c16 -42 35 -95 42 -117 7 -22 20 -56 28 -75 23 -53 52 -149 46
-155 -6 -6 -60 77 -87 135 -42 93 -71 178 -71 212 0 22 -7 41 -20 53 -19 17
-27 64 -13 79 10 10 42 -45 75 -132z m4063 59 c-4 -17 -11 -29 -16 -25 -10 6
-12 57 -2 68 14 13 25 -13 18 -43z m41 -103 c-3 -13 -6 -32 -7 -43 l0 -20 -9
20 c-15 34 -12 65 6 65 12 0 15 -6 10 -22z m4 -103 c0 -8 -4 -15 -10 -15 -5 0
-10 7 -10 15 0 8 5 15 10 15 6 0 10 -7 10 -15z m-4241 -97 c12 -24 33 -65 49
-93 15 -27 50 -90 76 -140 47 -88 88 -159 133 -233 34 -57 28 -71 -13 -31 -39
37 -135 160 -174 224 -63 102 -130 280 -115 305 12 19 24 10 44 -32z m4283 0
c6 -17 -3 -68 -12 -68 -11 0 -23 57 -15 70 8 13 22 13 27 -2z m-3961 -221 c30
-25 129 -155 129 -169 0 -5 16 -29 35 -52 33 -40 44 -66 29 -66 -24 0 -174
143 -174 165 0 7 -5 15 -11 17 -9 3 -48 98 -49 121 0 12 14 7 41 -16z m4009
-16 c0 -17 -4 -33 -10 -36 -11 -7 -25 39 -15 54 12 21 25 11 25 -18z m40 -131
c0 -16 -4 -30 -9 -30 -12 0 -24 37 -16 50 12 20 25 10 25 -20z m48 -221 c-1
-13 -7 -23 -13 -22 -13 3 -18 30 -11 50 10 24 29 1 24 -28z m4059 -106 c-3
-10 -5 -4 -5 12 0 17 2 24 5 18 2 -7 2 -21 0 -30z m-7679 -98 c49 -25 92 -45
97 -45 7 0 126 -54 190 -87 177 -90 229 -114 335 -157 36 -15 74 -31 85 -36
43 -21 262 -102 297 -111 21 -5 63 -20 93 -34 42 -18 56 -29 53 -42 -3 -15
-16 -19 -75 -21 -58 -2 -83 2 -134 23 -71 29 -129 33 -129 10 0 -26 -48 -17
-134 24 -44 22 -106 51 -136 65 -170 80 -396 220 -496 309 -7 7 -43 37 -78 67
-108 92 -99 101 32 35z m3662 0 c0 -14 -4 -25 -10 -25 -11 0 -14 33 -3 43 11
11 13 8 13 -18z m40 -131 c0 -21 -4 -33 -10 -29 -17 10 -11 65 7 65 2 0 3 -16
3 -36z m50 -209 c0 -14 -4 -25 -10 -25 -5 0 -10 11 -10 25 0 14 5 25 10 25 6
0 10 -11 10 -25z m43 -208 c3 -8 1 -20 -4 -28 -6 -10 -9 -7 -9 14 0 29 5 35
13 14z m-33 -161 c0 -22 -11 -46 -21 -46 -10 0 -12 43 -2 53 11 12 23 8 23 -7z
m44 -238 c8 -42 -9 -60 -25 -25 -12 26 -7 57 9 57 5 0 12 -14 16 -32z m-8
-332 c70 -10 89 -28 68 -67 -8 -16 -14 -35 -14 -44 0 -20 -45 -19 -90 3 -32
16 -35 21 -35 62 -1 56 2 62 25 55 10 -3 31 -7 46 -9z m-266 -96 c8 -5 11 -12
8 -16 -10 -9 -38 3 -38 16 0 12 10 13 30 0z m215 -70 c3 -5 -3 -10 -15 -10
-12 0 -18 5 -15 10 3 6 10 10 15 10 5 0 12 -4 15 -10z m-6126 -572 c20 -53 23
-88 8 -88 -27 0 -39 27 -32 70 8 46 12 49 24 18z m6572 -132 c62 -81 126 -207
151 -296 31 -107 69 -251 83 -315 8 -33 21 -87 30 -120 9 -33 21 -80 25 -105
5 -25 23 -94 40 -155 16 -60 34 -132 40 -160 5 -27 17 -77 26 -110 9 -33 20
-80 23 -105 4 -25 11 -51 15 -59 8 -12 19 -58 70 -271 8 -30 22 -84 31 -120
10 -36 22 -83 26 -105 4 -22 22 -92 39 -155 17 -63 35 -133 39 -155 10 -57 58
-232 97 -359 35 -112 41 -146 25 -146 -29 0 -98 185 -117 310 -3 25 -12 56
-20 70 -7 14 -18 61 -24 105 -7 44 -18 89 -26 100 -8 11 -14 33 -14 50 0 17
-9 57 -21 89 -11 33 -23 82 -26 110 -3 28 -14 69 -24 92 -10 22 -19 50 -19 63
0 31 -19 110 -36 148 -8 17 -14 45 -14 62 0 17 -6 45 -14 63 -18 43 -36 121
-36 157 0 16 -7 34 -15 41 -8 7 -15 27 -15 46 0 37 -23 132 -39 163 -6 11 -11
37 -11 58 0 21 -9 52 -19 69 -10 17 -22 59 -26 95 -4 35 -16 84 -26 108 -10
24 -19 55 -19 70 0 14 -11 62 -25 106 -14 44 -25 94 -25 110 0 17 -7 40 -15
52 -9 12 -20 48 -26 80 -13 68 -46 138 -103 213 -74 98 -90 133 -69 154 12 12
27 0 64 -48z m-6522 -36 c21 -99 208 -642 256 -745 26 -55 165 -374 165 -378
0 -7 110 -202 170 -302 53 -89 131 -209 191 -295 17 -25 46 -65 63 -90 32 -45
178 -244 215 -291 12 -16 16 -30 11 -39 -10 -15 -14 -11 -140 132 -84 95 -87
99 -151 183 -167 220 -291 435 -452 785 -14 30 -41 89 -60 130 -71 153 -172
423 -212 568 -8 28 -22 68 -30 88 -8 20 -15 50 -15 66 0 17 -6 42 -14 56 -21
40 -40 136 -32 166 9 37 23 24 35 -34z m8155 -212 c145 -145 262 -376 291
-575 24 -166 35 -299 35 -434 0 -116 -2 -131 -20 -149 -22 -22 -24 -45 -13
-191 5 -72 9 -87 15 -64 4 17 6 -19 3 -80 -2 -60 -9 -131 -16 -157 -10 -38
-10 -54 0 -86 19 -58 12 -78 -27 -74 l-33 2 3 -47 c3 -44 1 -48 -20 -48 -20 0
-41 -19 -42 -37 0 -4 9 -10 20 -13 11 -4 27 -17 35 -29 16 -24 16 -23 -11
-263 -4 -29 -16 -54 -43 -85 -20 -23 -42 -61 -49 -84 -14 -47 -52 -87 -79 -82
-31 6 -28 61 8 146 37 90 78 226 79 262 0 14 7 34 15 44 16 21 21 76 7 76 -5
0 -16 -17 -26 -37 -23 -53 -44 -92 -74 -138 -29 -44 -82 -109 -82 -100 0 11
39 145 45 155 24 39 117 484 130 620 6 67 70 341 87 373 7 14 13 15 29 7 11
-6 24 -8 29 -5 17 10 11 106 -10 180 -11 38 -20 84 -20 101 0 17 -9 60 -19 95
-10 35 -27 100 -37 144 -9 44 -26 105 -36 135 -29 83 -130 286 -182 363 -25
38 -46 74 -46 82 0 7 -7 18 -15 25 -8 7 -15 16 -15 21 0 21 26 5 84 -53z m-4
-393 c6 -17 19 -49 30 -70 11 -22 20 -49 20 -61 0 -12 7 -41 15 -64 17 -47 20
-120 6 -120 -15 0 -60 87 -87 169 -20 60 -54 196 -54 217 0 17 62 -46 70 -71z
m-8190 5 c45 -119 279 -593 416 -846 108 -199 126 -240 105 -232 -21 7 -124
145 -184 246 -182 304 -377 745 -377 852 0 44 18 34 40 -20z m1150 -1580 c0
-5 -4 -10 -9 -10 -6 0 -13 5 -16 10 -3 6 1 10 9 10 9 0 16 -4 16 -10z m6062
-512 c13 -13 33 -36 43 -53 10 -16 42 -55 70 -85 63 -66 81 -98 66 -113 -7 -7
-17 -5 -33 7 -60 43 -99 66 -113 66 -21 0 -41 37 -54 98 -11 52 -14 102 -8
102 2 0 15 -10 29 -22z m-5602 -70 c0 -13 -23 -5 -28 10 -2 7 2 10 12 6 9 -3
16 -11 16 -16z m6760 5 c-1 -21 -30 -56 -80 -96 -55 -44 -128 -107 -197 -169
-35 -31 -84 -70 -109 -85 -96 -60 -151 -97 -202 -139 -62 -50 -110 -68 -158
-60 -26 5 -34 12 -34 27 0 26 125 157 157 165 13 4 23 11 23 18 1 15 46 66 59
66 6 0 10 -10 8 -22 -5 -56 115 -11 179 67 21 25 44 45 51 45 7 0 13 4 13 9 0
5 12 11 28 14 15 3 72 44 127 91 98 85 135 103 135 69z m-6598 -112 c73 -49
150 -98 172 -109 42 -23 82 -58 107 -94 9 -13 36 -37 59 -53 37 -26 53 -30
109 -30 77 0 144 -28 149 -60 4 -28 -39 -89 -65 -93 -12 -2 -34 5 -50 14 -153
94 -185 116 -248 170 -33 28 -107 89 -165 134 -93 74 -220 192 -220 205 0 14
30 -3 152 -84z m6323 12 c-4 -10 -10 -26 -12 -35 -3 -10 -12 -18 -20 -18 -15
0 -10 33 9 58 15 18 31 15 23 -5z m-904 -134 c10 -19 21 -77 36 -188 7 -53 -9
-49 -33 7 -18 45 -46 181 -38 193 9 15 23 10 35 -12z m218 -75 c75 -68 77 -75
36 -124 -19 -23 -35 -45 -35 -49 0 -3 19 -5 43 -3 41 3 42 3 65 -45 12 -26 22
-53 22 -59 0 -6 -18 -19 -41 -29 -23 -11 -62 -34 -87 -52 -54 -38 -68 -41 -77
-13 -5 17 -12 20 -40 14 -31 -5 -36 -3 -54 27 -12 19 -21 42 -21 52 0 27 56
75 95 83 28 5 33 9 26 23 -21 39 -42 146 -36 182 9 54 38 52 104 -7z m-205
-445 c78 -36 17 -100 -199 -206 -66 -33 -160 -74 -210 -93 -49 -18 -118 -43
-152 -56 -34 -13 -71 -24 -82 -24 -12 0 -29 -4 -39 -9 -37 -19 -129 -43 -152
-39 -14 1 -26 11 -28 20 -2 12 8 20 37 28 48 13 53 28 11 37 -16 3 -30 9 -30
14 0 12 46 22 75 17 19 -4 25 -1 25 13 0 12 10 19 33 24 31 6 145 52 197 80
14 7 41 18 60 23 19 6 68 24 109 41 40 17 88 31 107 31 22 0 37 6 41 15 3 9
23 26 45 38 119 66 112 64 152 46z m-4129 -61 c28 -6 102 -30 165 -53 171 -64
401 -142 437 -150 17 -3 37 -13 44 -21 6 -8 20 -14 29 -14 35 0 120 -24 120
-33 0 -12 -146 -3 -163 10 -7 5 -16 9 -22 8 -5 -1 -33 -5 -61 -9 -47 -8 -50
-10 -46 -33 4 -23 8 -25 43 -20 22 3 45 0 54 -7 15 -11 15 -13 1 -25 -13 -11
-25 -11 -64 -1 -26 7 -53 18 -60 23 -7 6 -38 14 -69 18 -66 9 -75 16 -48 36
19 14 17 15 -20 9 -50 -7 -117 5 -123 22 -2 8 8 12 34 12 20 0 34 3 31 7 -9 8
-36 11 -122 12 -49 1 -66 4 -55 11 8 5 25 10 38 10 39 0 14 20 -26 21 -44 1
-74 11 -71 24 1 6 -10 17 -25 25 -25 14 -28 13 -40 -2 -17 -23 -31 -23 -75 4
-63 37 -101 79 -101 111 l0 29 73 -6 c39 -4 95 -12 122 -18z m25 -158 c0 -5
-7 -10 -15 -10 -8 0 -15 5 -15 10 0 6 7 10 15 10 8 0 15 -4 15 -10z m807 -116
c-3 -3 -12 -4 -19 -1 -8 3 -5 6 6 6 11 1 17 -2 13 -5z m131 -24 c6 0 12 -4 12
-10 0 -11 -33 -13 -68 -3 -18 4 -20 8 -10 15 7 4 22 6 33 3 11 -2 26 -5 33 -5z
m-263 -70 c0 -9 -11 -16 -27 -18 -23 -3 -28 1 -28 18 0 17 5 21 28 18 16 -2
27 -9 27 -18z m2550 -10 c0 -18 -43 -26 -57 -12 -16 16 2 33 30 30 16 -2 27
-9 27 -18z m-2445 -9 c0 -15 -30 -21 -51 -11 -27 15 -24 20 16 20 19 0 35 -4
35 -9z m2327 -7 c10 -26 -14 -41 -35 -21 -15 16 -15 19 -2 27 21 14 30 12 37
-6z m-2212 -23 c7 -12 -25 -30 -42 -24 -7 3 -13 11 -13 19 0 16 45 20 55 5z
m2093 -18 c-4 -22 -34 -29 -53 -13 -21 17 -9 30 26 30 24 0 30 -4 27 -17z
m-1968 -18 c0 -8 -9 -15 -20 -15 -11 0 -20 7 -20 15 0 8 9 15 20 15 11 0 20
-7 20 -15z m1818 -18 c3 -12 -3 -17 -22 -17 -29 0 -44 19 -25 31 20 13 43 6
47 -14z m-1655 -12 c-4 -15 -56 -12 -61 3 -3 10 5 13 29 10 19 -2 33 -7 32
-13z m1465 -12 c-4 -20 -45 -30 -60 -15 -16 16 1 32 33 32 24 0 30 -4 27 -17z
m-1268 -19 c0 -11 -8 -14 -32 -12 -46 4 -49 28 -4 28 26 0 36 -4 36 -16z m997
-11 c8 -22 -76 -36 -134 -23 -29 6 -53 15 -53 20 0 20 181 23 187 3z m-657 -3
c11 -7 9 -11 -13 -19 -50 -19 -137 -7 -137 19 0 13 129 13 150 0z m-10310
-2454 c36 -8 88 -22 115 -31 115 -39 360 -177 396 -224 34 -42 2 -111 -50
-111 -15 0 -62 23 -106 51 -307 195 -557 237 -829 138 -140 -51 -243 -137
-292 -244 -83 -181 0 -343 232 -451 91 -42 208 -76 395 -114 402 -82 630 -212
731 -418 32 -65 33 -70 33 -192 0 -123 -1 -126 -36 -200 -69 -143 -166 -235
-334 -316 -126 -61 -224 -85 -380 -91 -200 -8 -356 25 -555 118 -98 46 -305
181 -320 209 -27 50 5 110 58 110 18 0 51 -18 92 -49 343 -257 740 -317 1060
-159 311 154 373 472 126 655 -115 86 -265 141 -538 198 -309 65 -478 137
-600 256 -93 91 -130 171 -136 291 -6 114 19 198 87 294 96 137 258 235 461
278 86 19 307 20 390 2z m17043 -20 c399 -120 691 -459 762 -886 25 -145 17
-347 -19 -485 -51 -197 -180 -413 -324 -545 -99 -92 -191 -148 -402 -246
l-189 -88 67 -21 c37 -12 103 -42 148 -68 163 -94 302 -139 436 -139 121 0
224 38 363 131 67 46 91 50 128 21 79 -62 25 -140 -159 -230 -110 -55 -215
-80 -331 -80 -168 0 -299 39 -509 150 -60 33 -137 66 -169 75 -118 30 -274 15
-405 -40 -55 -23 -63 -24 -93 -11 -47 19 -66 66 -45 110 14 27 35 41 164 98
132 60 145 67 118 73 -437 94 -749 415 -850 875 -23 105 -23 337 0 453 86 439
416 784 836 873 44 9 116 12 225 10 138 -3 172 -7 248 -30z m-13011 -28 c198
-79 347 -246 393 -439 19 -82 19 -228 0 -304 -38 -150 -149 -303 -277 -382
l-58 -36 50 -29 c106 -61 214 -201 249 -323 7 -22 16 -107 21 -190 5 -99 15
-169 27 -205 16 -49 21 -55 53 -61 43 -9 60 -32 60 -80 0 -96 -128 -106 -207
-16 -59 68 -78 144 -92 374 -7 120 -11 139 -39 196 -55 111 -161 194 -315 248
l-82 29 -267 0 -268 0 0 -445 0 -446 -25 -24 c-34 -35 -86 -34 -114 1 -21 27
-21 30 -21 1072 l0 1046 22 23 22 24 401 -3 400 -3 67 -27z m3258 12 c20 -20
20 -33 20 -1072 l0 -1052 -22 -23 c-27 -29 -80 -31 -108 -3 -20 20 -20 33 -20
1077 0 969 1 1058 17 1075 23 25 87 24 113 -2z m5019 -6 c28 -35 26 -69 -4
-99 l-24 -25 -541 0 -540 0 0 -435 0 -435 475 0 476 0 24 -25 c30 -30 32 -64
4 -99 l-20 -26 -480 0 -479 0 0 -484 c0 -474 0 -484 -21 -510 -28 -35 -80 -36
-114 -1 l-25 24 0 1044 c0 1041 0 1044 21 1071 l20 26 604 0 604 0 20 -26z
m1493 -6 c198 -79 347 -246 393 -439 19 -82 19 -228 0 -304 -38 -150 -149
-303 -277 -382 l-58 -36 50 -29 c106 -61 214 -201 249 -323 7 -22 16 -107 21
-190 5 -99 15 -169 27 -205 16 -49 21 -55 53 -61 43 -9 60 -32 60 -80 0 -96
-128 -106 -207 -16 -59 68 -78 144 -92 374 -7 120 -11 139 -39 196 -55 111
-161 194 -315 248 l-82 29 -267 0 -268 0 0 -445 0 -446 -25 -24 c-34 -35 -86
-34 -114 1 -21 27 -21 30 -21 1072 l0 1046 22 23 22 24 401 -3 400 -3 67 -27z
m1238 12 c20 -20 20 -33 20 -1072 l0 -1052 -22 -23 c-27 -29 -80 -31 -108 -3
-20 20 -20 33 -20 1077 0 969 1 1058 17 1075 23 25 87 24 113 -2z m3573 2 c14
-15 16 -94 19 -702 4 -665 5 -687 26 -763 37 -135 94 -230 197 -333 78 -79
105 -99 186 -137 120 -58 201 -77 321 -77 119 0 224 25 338 82 68 34 103 60
175 133 103 102 160 199 197 332 21 76 22 98 26 763 4 765 -1 720 74 720 25 0
45 -7 58 -20 20 -20 20 -33 20 -699 0 -549 -3 -693 -14 -753 -59 -301 -266
-549 -548 -658 -438 -169 -920 22 -1123 445 -83 172 -79 130 -83 932 -3 705
-3 712 18 733 26 26 90 27 113 2z m3499 1 c25 -23 24 -87 -2 -113 -20 -20 -33
-20 -560 -20 l-540 0 0 -435 0 -435 472 0 c471 0 472 0 495 -22 29 -27 31 -80
3 -108 -19 -19 -33 -20 -495 -20 l-475 0 0 -430 0 -429 539 -3 c514 -3 540 -4
560 -22 28 -26 29 -88 1 -116 -20 -20 -33 -20 -615 -20 l-596 0 -24 25 -25 24
0 1044 c0 1041 0 1044 21 1071 l20 26 601 0 c546 0 603 -2 620 -17z m-20209
-11 c10 -10 191 -483 403 -1050 277 -741 384 -1039 380 -1056 -3 -14 -13 -32
-22 -40 -21 -21 -77 -20 -103 2 -13 11 -57 114 -120 282 l-99 265 -495 3 -495
2 -26 -67 c-14 -38 -59 -157 -100 -266 -41 -109 -82 -207 -92 -218 -40 -44
-134 -11 -134 48 0 36 760 2065 783 2091 26 29 96 31 120 4z m3980 0 c10 -10
191 -483 403 -1050 277 -741 384 -1039 380 -1056 -3 -14 -13 -32 -22 -40 -21
-21 -77 -20 -103 2 -13 11 -57 114 -120 282 l-99 265 -495 3 -495 2 -26 -67
c-14 -38 -59 -157 -100 -266 -41 -109 -82 -207 -92 -218 -40 -44 -134 -11
-134 48 0 36 760 2065 783 2091 26 29 96 31 120 4z m3900 0 c10 -10 191 -483
403 -1050 277 -741 384 -1039 380 -1056 -3 -14 -13 -32 -22 -40 -21 -21 -77
-20 -103 2 -13 11 -57 114 -120 282 l-99 265 -495 3 -495 2 -26 -67 c-14 -38
-59 -157 -100 -266 -41 -109 -82 -207 -92 -218 -40 -44 -134 -11 -134 48 0 36
760 2065 783 2091 26 29 96 31 120 4z"/>
<path d="M17070 19990 c0 -5 14 -10 31 -10 17 0 28 4 24 10 -3 6 -17 10 -31
10 -13 0 -24 -4 -24 -10z"/>
<path d="M17186 19951 c-6 -10 84 -22 98 -13 5 3 1 9 -10 13 -27 11 -82 11
-88 0z"/>
<path d="M17340 19900 c20 -13 60 -13 60 0 0 6 -17 10 -37 10 -28 0 -34 -3
-23 -10z"/>
<path d="M17484 19861 c7 -11 65 -23 78 -15 16 10 -13 24 -50 24 -18 0 -31 -4
-28 -9z"/>
<path d="M17622 19821 c-11 -7 -10 -10 3 -15 25 -9 110 -7 100 3 -15 13 -88
22 -103 12z"/>
<path d="M17770 19775 c0 -12 56 -26 79 -20 20 5 22 8 10 16 -15 9 -89 13 -89
4z"/>
<path d="M22637 20633 c-11 -10 -8 -51 3 -58 6 -4 10 8 10 29 0 37 -2 41 -13
29z"/>
<path d="M15965 14890 c3 -5 15 -10 25 -10 10 0 22 5 25 10 4 6 -7 10 -25 10
-18 0 -29 -4 -25 -10z"/>
<path d="M23608 12020 c-229 -41 -432 -166 -567 -349 -281 -379 -254 -922 63
-1259 130 -137 262 -218 431 -263 114 -31 289 -31 403 -1 332 89 576 345 664
699 32 128 32 342 -1 466 -48 187 -121 318 -249 450 -115 117 -257 201 -417
243 -70 18 -259 27 -327 14z"/>
<path d="M10250 11534 l0 -476 308 4 c286 4 311 6 372 27 174 60 292 203 322
389 30 192 -90 405 -274 486 -89 39 -154 46 -450 46 l-278 0 0 -476z"/>
<path d="M20020 11534 l0 -476 308 4 c286 4 311 6 372 27 174 60 292 203 322
389 30 192 -90 405 -274 486 -89 39 -154 46 -450 46 l-278 0 0 -476z"/>
<path d="M8601 11282 c-118 -312 -216 -573 -219 -579 -3 -10 87 -13 432 -13
240 0 436 2 436 5 0 10 -423 1140 -429 1147 -4 4 -103 -248 -220 -560z"/>
<path d="M12581 11282 c-118 -312 -216 -573 -219 -579 -3 -10 87 -13 432 -13
240 0 436 2 436 5 0 10 -423 1140 -429 1147 -4 4 -103 -248 -220 -560z"/>
<path d="M16481 11282 c-118 -312 -216 -573 -219 -579 -3 -10 87 -13 432 -13
240 0 436 2 436 5 0 10 -423 1140 -429 1147 -4 4 -103 -248 -220 -560z"/>
</g>
</svg>
